<svg xmlns="http://www.w3.org/2000/svg" xmlns:xlink="http://www.w3.org/1999/xlink" width="200" zoomAndPan="magnify" viewBox="0 0 150 149.999998" height="200" preserveAspectRatio="xMidYMid meet" version="1.0"><defs><g/><clipPath id="9e16e76851"><path d="M 45.097656 27.042969 L 105 27.042969 L 105 87.027344 L 45.097656 87.027344 Z M 45.097656 27.042969 " clip-rule="nonzero"/></clipPath></defs><g clip-path="url(#9e16e76851)"><path fill="#ffffff" d="M 91.886719 71.316406 L 98.523438 71.316406 L 74.84375 33.609375 L 51.1875 71.316406 Z M 60.550781 66.988281 L 73.011719 47.097656 C 73.660156 46.082031 74.972656 45.769531 76.003906 46.417969 C 76.289062 46.609375 76.53125 46.847656 76.707031 47.121094 L 89.148438 66.988281 L 84.027344 66.988281 L 74.832031 52.3125 L 65.632812 66.988281 Z M 66.636719 75.683594 L 60.191406 75.683594 L 55.800781 82.703125 L 62.226562 82.703125 Z M 89.496094 75.683594 L 83.070312 75.683594 L 87.558594 82.8125 L 93.980469 82.8125 Z M 102.433594 75.683594 L 94.613281 75.683594 L 99.730469 83.839844 C 100.378906 84.832031 100.066406 86.183594 99.050781 86.832031 C 98.691406 87.046875 98.296875 87.164062 97.890625 87.164062 L 86.347656 87.164062 C 85.523438 87.164062 84.78125 86.6875 84.421875 86.003906 L 77.953125 75.695312 L 71.746094 75.695312 L 65.273438 86.027344 C 64.84375 86.6875 64.164062 87.046875 63.421875 87.046875 L 51.878906 87.046875 C 50.695312 87.046875 49.726562 86.078125 49.726562 84.894531 C 49.726562 84.390625 49.871094 83.949219 50.15625 83.589844 L 55.109375 75.695312 L 47.273438 75.695312 C 46.066406 75.683594 45.097656 74.714844 45.097656 73.507812 C 45.097656 73.027344 45.265625 72.585938 45.527344 72.203125 L 73.011719 28.371094 C 73.660156 27.351562 74.972656 27.042969 76.003906 27.6875 C 76.289062 27.878906 76.53125 28.140625 76.707031 28.394531 L 104.253906 72.335938 C 104.898438 73.351562 104.589844 74.679688 103.59375 75.324219 C 103.210938 75.5625 102.839844 75.660156 102.433594 75.660156 Z M 102.433594 75.683594 " fill-opacity="1" fill-rule="nonzero"/></g><g fill="#ffffff" fill-opacity="1"><g transform="translate(31.61312, 117.364365)"><g><path d="M 13.71875 0 L 12.5 -2.359375 L 6.140625 -2.359375 L 4.921875 0 L 0.265625 0 L 9.328125 -16.84375 L 18.375 0 Z M 10.859375 -5.515625 L 9.328125 -8.46875 L 7.78125 -5.515625 Z M 10.859375 -5.515625 "/></g></g></g><g fill="#ffffff" fill-opacity="1"><g transform="translate(52.058774, 117.364365)"><g><path d="M 12.078125 -8.46875 L 17.65625 -2.90625 L 14.78125 -0.046875 L 9.203125 -5.625 L 3.625 -0.046875 L 0.78125 -2.90625 L 6.34375 -8.46875 L 0.78125 -14.046875 L 3.65625 -16.90625 L 9.203125 -11.359375 L 14.78125 -16.90625 L 17.65625 -14.046875 Z M 12.078125 -8.46875 "/></g></g></g><g fill="#ffffff" fill-opacity="1"><g transform="translate(72.297128, 117.364365)"><g><path d="M 0.390625 -16.84375 L 4.4375 -16.84375 L 4.4375 0 L 0.390625 0 Z M 0.390625 -16.84375 "/></g></g></g><g fill="#ffffff" fill-opacity="1"><g transform="translate(78.931203, 117.364365)"><g><path d="M 9.078125 -16.765625 C 11.472656 -16.765625 13.519531 -15.921875 15.21875 -14.234375 C 16.90625 -12.535156 17.75 -10.488281 17.75 -8.09375 C 17.75 -5.6875 16.90625 -3.632812 15.21875 -1.9375 C 13.519531 -0.25 11.472656 0.59375 9.078125 0.59375 C 6.671875 0.59375 4.617188 -0.25 2.921875 -1.9375 C 1.234375 -3.632812 0.390625 -5.6875 0.390625 -8.09375 C 0.390625 -10.488281 1.234375 -12.535156 2.921875 -14.234375 C 4.617188 -15.921875 6.671875 -16.765625 9.078125 -16.765625 Z M 12.65625 -4.515625 C 13.632812 -5.492188 14.125 -6.6875 14.125 -8.09375 C 14.125 -9.488281 13.632812 -10.679688 12.65625 -11.671875 C 11.664062 -12.648438 10.472656 -13.140625 9.078125 -13.140625 C 7.671875 -13.140625 6.476562 -12.648438 5.5 -11.671875 C 4.507812 -10.679688 4.015625 -9.488281 4.015625 -8.09375 C 4.015625 -6.6875 4.507812 -5.492188 5.5 -4.515625 C 6.519531 -3.523438 7.710938 -3.03125 9.078125 -3.03125 C 10.441406 -3.03125 11.632812 -3.523438 12.65625 -4.515625 Z M 12.65625 -4.515625 "/></g></g></g><g fill="#ffffff" fill-opacity="1"><g transform="translate(98.884515, 117.364365)"><g><path d="M 18.71875 -16.84375 L 18.71875 0 L 14.671875 0 L 14.671875 -9.4375 L 9.671875 -6.25 L 4.828125 -9.40625 L 4.828125 0 L 0.78125 0 L 0.78125 -16.84375 L 9.71875 -11.0625 Z M 18.71875 -16.84375 "/></g></g></g></svg>